<svg width="24" height="24" viewBox="0 0 24 24" fill="none" xmlns="http://www.w3.org/2000/svg">
  <path d="M20 6V10H16" stroke="#2F7CF6" stroke-width="2" stroke-linecap="round" stroke-linejoin="round"/>
  <path d="M18.2 15.2C17.5 16.8 16.3 18.1 14.8 18.9C13.3 19.7 11.6 20 9.92 19.7C8.24 19.4 6.75 18.6 5.55 17.3C4.35 16.1 3.58 14.5 3.35 12.8C3.12 11.1 3.45 9.32 4.28 7.82C5.11 6.31 6.4 5.11 7.99 4.47C9.58 3.84 11.3 3.81 12.9 4.38C14.4 4.95 15.7 5.92 16.6 7.2" stroke="#16A085" stroke-width="2" stroke-linecap="round" stroke-linejoin="round"/>
  <path d="M4 18V14H8" stroke="#F08A24" stroke-width="2" stroke-linecap="round" stroke-linejoin="round"/>
</svg>
